#format: frame checksums
#version: 1
#hash: MD5
#tb 0: 1001/30000
#stream#, dts,        pts, duration,     size, hash
0,          0,          0,        1,     3366, bf4e568217906ee4b58dc4707bee8ef6
0,          1,          1,        1,     3366, f823f8c7b6e47ba43215f3becd35208e
0,          2,          2,        1,     3366, 1d986d65b502e77764428e21e77503a6
0,          3,          3,        1,     3366, 73520382bc54d6aee165402518dd7b5d
0,          4,          4,        1,     3366, c84e943758f2d7e37126172728838640
0,          5,          5,        1,     3366, 1d4b298da98e4b66b31ad6874f726aa6
0,          6,          6,        1,     3366, e67748eeb3c818deb8b51d321cd16a9c
0,          7,          7,        1,     3366, 4d1514c63e669261beef9e35b04c241e
0,          8,          8,        1,     3366, 57705e2131e2129efbc68b74a1e0459c
0,          9,          9,        1,     3366, 681acf1b384856d6e544d8e7a79fc628
